<svg width="20" height="17" viewBox="0 0 20 17" fill="none" xmlns="http://www.w3.org/2000/svg">
<path d="M13.25 8.61947L12.575 7.97259C12.425 7.82884 12.25 7.76096 12.05 7.76895C11.85 7.77693 11.675 7.8528 11.525 7.99655C11.375 8.1403 11.3 8.30801 11.3 8.49967C11.3 8.69134 11.375 8.85905 11.525 9.0028L13.3 10.7038C13.5 10.8955 13.7333 10.9913 14 10.9913C14.2667 10.9913 14.5 10.8955 14.7 10.7038L16.475 9.0028C16.625 8.85905 16.7 8.69134 16.7 8.49967C16.7 8.30801 16.625 8.1403 16.475 7.99655C16.325 7.8528 16.1458 7.78092 15.9375 7.78092C15.7292 7.78092 15.55 7.8528 15.4 7.99655L14.75 8.61947V6.34342C14.75 6.13579 14.6792 5.96408 14.5375 5.82832C14.3958 5.69256 14.2167 5.62467 14 5.62467C13.7833 5.62467 13.6042 5.69256 13.4625 5.82832C13.3208 5.96408 13.25 6.13579 13.25 6.34342V8.61947ZM2 16.1663C1.45 16.1663 0.979167 15.9787 0.5875 15.6033C0.195833 15.228 0 14.7768 0 14.2497V2.74967C0 2.22259 0.195833 1.77138 0.5875 1.39603C0.979167 1.02068 1.45 0.833008 2 0.833008H18C18.55 0.833008 19.0208 1.02068 19.4125 1.39603C19.8042 1.77138 20 2.22259 20 2.74967V14.2497C20 14.7768 19.8042 15.228 19.4125 15.6033C19.0208 15.9787 18.55 16.1663 18 16.1663H2ZM5 7.06217H6V9.21842C6 9.42606 6.07083 9.59776 6.2125 9.73353C6.35417 9.86929 6.53333 9.93717 6.75 9.93717C6.96667 9.93717 7.14583 9.86929 7.2875 9.73353C7.42917 9.59776 7.5 9.42606 7.5 9.21842V7.06217H8.5V10.6559C8.5 10.8636 8.57083 11.0353 8.7125 11.171C8.85417 11.3068 9.03333 11.3747 9.25 11.3747C9.46667 11.3747 9.64583 11.3068 9.7875 11.171C9.92917 11.0353 10 10.8636 10 10.6559V6.58301C10 6.31148 9.90417 6.08388 9.7125 5.9002C9.52083 5.71651 9.28333 5.62467 9 5.62467H4.5C4.21667 5.62467 3.97917 5.71651 3.7875 5.9002C3.59583 6.08388 3.5 6.31148 3.5 6.58301V10.6559C3.5 10.8636 3.57083 11.0353 3.7125 11.171C3.85417 11.3068 4.03333 11.3747 4.25 11.3747C4.46667 11.3747 4.64583 11.3068 4.7875 11.171C4.92917 11.0353 5 10.8636 5 10.6559V7.06217Z" fill="#42A4F4"/>
</svg>
